<svg width="58" height="57" viewBox="0 0 58 57" fill="none" xmlns="http://www.w3.org/2000/svg">
<path d="M29 1C34.913 1 40.6743 2.87194 45.458 6.34752C50.2417 9.82311 53.8024 14.7239 55.6296 20.3475C57.4568 25.9711 57.4568 32.0289 55.6296 37.6525C53.8024 43.2761 50.2417 48.1769 45.458 51.6525L38.8748 42.5915C41.745 40.5061 43.8814 37.5657 44.9777 34.1915C46.0741 30.8173 46.0741 27.1827 44.9778 23.8085C43.8814 20.4343 41.745 17.4939 38.8748 15.4085C36.0046 13.3232 32.5478 12.2 29 12.2V1Z" fill="#178217" stroke="white"/>
<path d="M29 1C23.087 1 17.3257 2.87194 12.542 6.34752C7.75828 9.82311 4.19764 14.7239 2.37042 20.3475L13.0222 23.8085C14.1186 20.4343 16.255 17.4939 19.1252 15.4085C21.9954 13.3232 25.4522 12.2 29 12.2V1Z" fill="#CE7422" stroke="white"/>
<path d="M12.542 51.6525C7.75828 48.1769 4.19764 43.2761 2.37042 37.6525C0.543194 32.0289 0.543194 25.9711 2.37042 20.3475L13.0223 23.8085C11.9259 27.1827 11.9259 30.8173 13.0222 34.1915C14.1186 37.5657 16.255 40.5061 19.1252 42.5915L12.542 51.6525Z" fill="#992400" stroke="white"/>
<path d="M30.4043 31.3369L13.4337 14.3664" stroke="white" stroke-width="4" stroke-linecap="round"/>
<circle cx="28.983" cy="29.9248" r="4" transform="rotate(-45 28.983 29.9248)" fill="#171A1C"/>
<path d="M30.4043 31.3369L13.4337 14.3664" stroke="#171A1C" stroke-width="2" stroke-linecap="round"/>
</svg>
