<svg width="58" height="57" viewBox="0 0 58 57" fill="none" xmlns="http://www.w3.org/2000/svg">
<path d="M2.37042 37.6525C0.774708 32.7414 0.568171 27.4847 1.77364 22.4635C2.97911 17.4424 5.54963 12.8524 9.20101 9.20101C12.8524 5.54963 17.4424 2.97911 22.4635 1.77364C27.4847 0.568171 32.7414 0.774708 37.6525 2.37042C42.5636 3.96613 46.9377 6.88885 50.2914 10.8155C53.645 14.7421 55.8475 19.5196 56.6553 24.6198C57.4631 29.7201 56.8447 34.9444 54.8686 39.7151C52.8925 44.4859 49.6356 48.6173 45.458 51.6525L38.8748 42.5915C41.3814 40.7704 43.3355 38.2915 44.5212 35.4291C45.7068 32.5666 46.0778 29.4321 45.5932 26.3719C45.1085 23.3118 43.787 20.4452 41.7748 18.0893C39.7626 15.7333 37.1381 13.9797 34.1915 13.0222C31.2448 12.0648 28.0908 11.9409 25.0781 12.6642C22.0654 13.3875 19.3114 14.9298 17.1206 17.1206C14.9298 19.3114 13.3875 22.0654 12.6642 25.0781C11.9409 28.0908 12.0648 31.2448 13.0222 34.1915L2.37042 37.6525Z" fill="#178217" stroke="white"/>
<path d="M12.542 51.6525C7.75828 48.1769 4.19764 43.2761 2.37042 37.6525L13.0222 34.1915C14.1186 37.5657 16.255 40.5061 19.1252 42.5915L12.542 51.6525Z" fill="#992400" stroke="white"/>
<path d="M29.9922 31.7812L17.9922 10.9966" stroke="white" stroke-width="4" stroke-linecap="round"/>
<circle cx="28.9875" cy="30.051" r="4" transform="rotate(-30 28.9875 30.051)" fill="#171A1C"/>
<path d="M29.9922 31.7812L17.9922 10.9966" stroke="#171A1C" stroke-width="2" stroke-linecap="round"/>
</svg>
