<svg width="58" height="57" viewBox="0 0 58 57" fill="none" xmlns="http://www.w3.org/2000/svg">
<path d="M15 4.75129C21.1708 1.18855 28.4678 0.112475 35.4044 1.74227C42.341 3.37207 48.3952 7.58513 52.3338 13.5231C56.2724 19.4612 57.7989 26.6774 56.6024 33.7017C55.406 40.726 51.5765 47.0298 45.8941 51.3291L39.1365 42.3975C42.5459 39.8179 44.8436 36.0356 45.5615 31.821C46.2794 27.6064 45.3634 23.2767 43.0003 19.7139C40.6371 16.1511 37.0046 13.6232 32.8426 12.6454C28.6807 11.6675 24.3025 12.3131 20.6 14.4508L15 4.75129Z" fill="#178217" stroke="white"/>
<path d="M15.4253 4.51065C10.2537 7.37734 6.12233 11.8077 3.62338 17.1667C1.12443 22.5257 0.386182 28.5383 1.51444 34.3426L12.5087 32.2056C11.8317 28.723 12.2747 25.1154 13.774 21.9C15.2734 18.6846 17.7522 16.0264 20.8552 14.3064L15.4253 4.51065Z" fill="#CE7422" stroke="white"/>
<path d="M12.542 51.6525C6.78043 47.4664 2.83043 41.2422 1.49596 34.2467L12.4976 32.148C13.2983 36.3453 15.6683 40.0799 19.1252 42.5915L12.542 51.6525Z" fill="#992400" stroke="white"/>
<path d="M29.4785 31.9453L23.2669 8.76309" stroke="white" stroke-width="4" stroke-linecap="round"/>
<circle cx="28.9556" cy="30.014" r="4" transform="rotate(-15 28.9556 30.014)" fill="#171A1C"/>
<path d="M29.4785 31.9453L23.2669 8.76309" stroke="#171A1C" stroke-width="2" stroke-linecap="round"/>
</svg>
